PathFileType	4	(X/Y/Z)	s02c0303.trc
DataRate	CameraRate	NumFrames	NumMarkers	Units	OrigDataRate	OrigDataStartFrame	OrigNumFrames
200	200	4	50	mm	200	250	2000
Frame#	Time	racr			lacr			c7			jug			rlel			rdr			llel			ldr			s2			lic			ric			lasi			rasi			rpsi			lpsi			rgt			lgt			rth1			rth2			rth3			rth4			rlfc			rmfc			rsh1			rsh2			rsh3			rsh4			rlmal			rmmal			rtoe			rmt5			rmt1			lth1			lth2			lth4			lth3			llfc			lmfc			lsh1			lsh2			lsh3			lsh4			llmal			lmmal			lcal			ltoe			lmt5			SBIKE			LBIKE			RBIKE			
		X1	Y1	Z1	X2	Y2	Z2	X3	Y3	Z3	X4	Y4	Z4	X5	Y5	Z5	X6	Y6	Z6	X7	Y7	Z7	X8	Y8	Z8	X9	Y9	Z9	X10	Y10	Z10	X11	Y11	Z11	X12	Y12	Z12	X13	Y13	Z13	X14	Y14	Z14	X15	Y15	Z15	X16	Y16	Z16	X17	Y17	Z17	X18	Y18	Z18	X19	Y19	Z19	X20	Y20	Z20	X21	Y21	Z21	X22	Y22	Z22	X23	Y23	Z23	X24	Y24	Z24	X25	Y25	Z25	X26	Y26	Z26	X27	Y27	Z27	X28	Y28	Z28	X29	Y29	Z29	X30	Y30	Z30	X31	Y31	Z31	X32	Y32	Z32	X33	Y33	Z33	X34	Y34	Z34	X35	Y35	Z35	X36	Y36	Z36	X37	Y37	Z37	X38	Y38	Z38	X39	Y39	Z39	X40	Y40	Z40	X41	Y41	Z41	X42	Y42	Z42	X43	Y43	Z43	X44	Y44	Z44	X45	Y45	Z45	X46	Y46	Z46	X47	Y47	Z47	X48	Y48	Z48	X49	Y49	Z49	X50	Y50	Z50	
250	1.2500	504.346133	1286.656053	-124.010293	533.285156	1280.399135	-458.905856	526.239698	1302.427642	-300.629580	0.000000	0.000000	-0.000000	549.357670	1011.994316	-77.297215	720.075362	865.698261	-123.128630	562.562381	1011.752424	-560.340069	709.883873	839.161881	-504.329199	1.741919	1128.009187	-328.925298	139.059428	1107.293123	-468.274618	126.594783	1113.982742	-180.043584	182.196749	1067.219174	-440.860699	175.539353	1091.914712	-215.770629	17.154441	1155.303853	-287.533083	28.926431	1162.872929	-374.748386	102.836315	1032.038645	-141.951140	84.422627	1018.595886	-503.918563	186.271391	1007.978543	-139.420925	270.942783	984.116696	-143.295546	332.657220	929.036219	-120.764784	286.837898	1008.368953	-167.938347	436.685011	822.478162	-153.578303	429.539268	803.292651	-262.114253	429.254849	709.339933	-134.664873	422.549874	621.665938	-152.989269	378.503629	547.566119	-146.398643	431.974135	621.216181	-191.268382	327.447174	437.521428	-150.522308	330.997621	458.362099	-232.416692	543.269722	422.071424	-192.721513	440.979481	384.447747	-130.277017	461.738608	407.189389	-239.297003	195.476148	929.073018	-515.115958	267.730171	880.495008	-511.868594	291.516009	901.176222	-491.981832	304.474440	798.614633	-509.461103	358.709387	714.930724	-484.392026	353.154565	687.970674	-377.303035	309.189687	622.990386	-502.992273	273.314019	546.279619	-485.260048	202.016441	491.546105	-490.495280	288.270205	538.614012	-448.024485	121.804799	420.705982	-476.205443	136.485535	407.252846	-399.930718	43.544057	419.503988	-434.046299	241.253422	211.471554	-443.818164	147.653093	267.715528	-502.251634	-128.545289	869.144080	-313.636459	32.607702	82.492071	-515.211503	32.540642	82.477228	-115.262421	
251	1.2550	504.672916	1285.956416	-123.221593	534.287164	1279.743825	-458.355252	526.911257	1301.662926	-300.172853	0.000000	0.000000	-0.000000	548.474905	1010.894364	-77.376779	719.860639	865.671419	-123.209446	562.302406	1011.291025	-560.696783	709.601487	839.042558	-504.359063	1.899411	1128.764294	-328.897738	139.148515	1107.754431	-468.379068	126.752847	1114.413466	-180.081220	182.154563	1067.664274	-440.976802	175.660294	1092.271537	-215.798996	17.447142	1156.017338	-287.625007	29.150665	1163.617239	-374.712552	102.881833	1032.476608	-141.999293	84.486339	1019.193841	-503.986845	186.257435	1008.026204	-139.391933	270.788498	983.703744	-143.226592	332.206370	928.262803	-120.634670	286.735662	1007.682502	-167.997027	435.534300	821.099713	-153.372052	428.344310	802.034205	-261.989517	428.212346	708.015050	-134.446501	421.883282	620.217863	-152.811108	378.026345	546.115203	-146.344632	431.320308	619.916740	-191.073646	327.402839	435.779115	-150.537731	331.061911	456.717950	-232.549704	543.251946	421.388978	-192.569106	441.169351	383.174640	-130.180127	461.822188	406.049777	-239.052399	195.823564	929.938123	-514.839282	268.114676	881.436835	-511.486853	291.867342	902.148611	-491.617130	304.935190	799.587364	-508.956819	359.067759	715.702985	-483.996522	353.157632	688.888394	-376.883466	309.355823	623.902956	-502.635512	273.239466	547.228398	-484.916482	201.814905	492.744230	-490.273422	288.118262	539.623745	-447.728388	121.218785	421.981375	-476.163887	136.088696	408.266986	-399.805642	42.908796	420.414188	-434.007125	240.942816	212.778978	-443.808140	147.292893	268.787648	-502.141950	-128.511050	869.149093	-313.530387	32.626603	82.504135	-515.219707	32.534997	82.484023	-115.271269	
252	1.2600	504.980321	1285.406081	-122.221491	535.192236	1279.093107	-458.035363	527.568637	1300.963697	-299.603913	0.000000	0.000000	-0.000000	547.483137	1009.795053	-77.550172	719.643067	865.663241	-123.321854	562.030456	1010.880211	-561.190286	709.349225	838.949948	-504.398970	2.113815	1129.388143	-328.889249	139.215259	1108.371868	-468.483397	126.927503	1114.817413	-180.079158	182.091461	1068.065586	-440.938539	175.820594	1092.534344	-215.770156	17.744379	1156.704569	-287.598036	29.423083	1164.381960	-374.778676	102.997118	1032.809452	-142.094390	84.590385	1019.802833	-504.048928	186.277240	1008.054423	-139.419322	270.672514	983.266035	-143.214779	331.799567	927.553999	-120.574950	286.740303	1007.141161	-167.961992	434.413282	819.870705	-153.275036	427.181387	800.655429	-261.763483	427.148673	706.666996	-134.307795	421.222191	618.910744	-152.629886	377.575446	544.536940	-146.264094	430.706746	618.647539	-190.898045	327.305762	434.136350	-150.534458	331.021359	455.115901	-232.583226	543.317899	420.523917	-192.484044	441.319491	381.960586	-130.086791	461.982856	405.018753	-239.125913	196.176848	930.773363	-514.564889	268.507095	882.382711	-511.050066	292.165734	903.108401	-491.045564	305.477028	800.579282	-508.442285	359.498992	716.722363	-483.520337	353.221651	689.764272	-376.482969	309.598660	624.801051	-502.220088	273.212803	548.406926	-484.698885	201.662271	493.969421	-490.138141	288.011799	540.647790	-447.421251	120.629332	423.273461	-476.163577	135.669921	409.268894	-399.747412	42.227967	421.507270	-434.085553	240.642332	213.960748	-443.816687	146.934207	269.867435	-502.155244	-128.490584	869.187244	-313.499935	32.614165	82.523779	-515.208645	32.530259	82.498812	-115.263342	
253	1.2650	505.394853	1284.822591	-121.530537	536.106635	1278.443525	-457.500861	528.214156	1300.259343	-299.124918	0.000000	0.000000	-0.000000	546.565052	1008.776303	-77.709208	719.429564	865.665762	-123.409672	561.726248	1010.512102	-561.701119	709.119732	838.887478	-504.492891	2.319835	1129.976245	-328.863179	139.321636	1108.675918	-468.621852	127.134310	1115.096066	-180.128358	182.091346	1068.490213	-441.005383	176.009721	1092.738956	-215.767534	18.009653	1157.321979	-287.630698	29.710781	1165.087718	-374.725064	103.109411	1033.240212	-142.097643	84.675613	1020.460159	-504.111723	186.353419	1008.038194	-139.433612	270.622824	982.800728	-143.211719	331.572715	927.162423	-120.114204	286.791770	1006.602995	-167.881794	433.369727	818.539820	-153.149203	426.099417	799.220491	-261.433621	426.120520	705.329645	-134.263994	420.571640	617.541233	-152.517867	377.182332	543.011991	-146.172289	430.095648	617.263733	-190.742639	327.293496	432.464396	-150.544228	330.933775	453.526974	-232.553146	543.381542	419.621209	-192.363756	441.502923	380.636226	-129.969153	462.083186	403.845886	-238.891522	196.562993	931.651487	-514.323554	268.967337	883.340087	-510.662513	292.514896	904.177331	-490.675371	305.976471	801.609904	-507.979352	359.896175	717.690195	-483.130529	353.343012	690.686286	-376.113306	309.869202	625.803838	-501.839948	273.207146	549.431428	-484.350607	201.523620	495.312430	-489.959264	287.894908	541.770459	-447.002509	120.080144	424.620541	-476.215596	135.125680	410.484299	-399.640952	41.588005	422.509309	-434.052394	240.342490	215.359243	-443.830269	146.525228	271.030619	-502.049400	-128.459564	869.182103	-313.426591	32.620279	82.556230	-515.208232	32.962513	82.243472	-115.061743	
